<svg width="37" height="37" viewBox="0 0 37 37" fill="none" xmlns="http://www.w3.org/2000/svg">
<path d="M10.571 1.01441C10.2254 1.06971 9.90277 1.17572 9.58016 1.34163C8.74597 1.76103 8.06387 2.63209 7.82882 3.5815L7.77812 3.77968H7.12368C6.37245 3.77968 5.97609 3.83037 5.72722 3.94559C5.50139 4.05159 5.23408 4.32351 5.10964 4.56317L5.01746 4.74752H3.69014C2.94812 4.74752 2.23837 4.77056 2.08628 4.79822C1.9388 4.82587 1.64845 4.92726 1.44566 5.02405C0.837303 5.3144 0.390251 5.82137 0.141377 6.50347L0.0169404 6.84451L0.00311402 18.1591C-0.00610354 27.9159 0.00311402 29.5243 0.0584194 29.8608C0.24277 30.9116 0.989393 31.6997 2.01254 31.9163C2.35359 31.99 4.48746 32.0177 4.52893 31.9485C4.54276 31.9255 4.49206 31.672 4.41371 31.3817C4.33997 31.0913 4.25241 30.6996 4.22015 30.5106L4.16023 30.1649L3.21543 30.1419C2.17846 30.1188 2.0955 30.0958 1.95263 29.8193C1.89271 29.6995 1.8835 28.4366 1.89271 18.325L1.90654 6.95973L2.08167 6.78921L2.2522 6.61408H3.64866H5.04051L5.06816 7.10722C5.09121 7.52661 5.11425 7.62801 5.22025 7.80775C5.28477 7.92297 5.41382 8.07045 5.50139 8.13958C5.83783 8.39767 5.6673 8.38846 11.1241 8.38846C16.6961 8.38846 16.3873 8.40689 16.7606 8.08888C17.0141 7.86766 17.1017 7.65566 17.157 7.098L17.2077 6.61408H18.5258H19.8439L20.0283 6.73851L20.2126 6.85834L20.8532 6.21772L21.4892 5.5771L21.3187 5.40197C21.0744 5.15309 20.6735 4.92265 20.3232 4.83048C20.0697 4.76595 19.7886 4.75213 18.6272 4.75213L17.2399 4.74752L17.1017 4.50325C16.9404 4.21751 16.7422 4.03777 16.4472 3.89951C16.2629 3.81655 16.1384 3.80272 15.3642 3.79811C14.6913 3.78889 14.4839 3.77046 14.4609 3.72437C14.4424 3.69211 14.3917 3.54002 14.3502 3.38793C14.0415 2.30487 13.1289 1.41537 12.0182 1.10658C11.6218 0.995974 10.9582 0.954494 10.571 1.01441ZM11.7325 2.89479C12.2394 3.15749 12.5021 3.56306 12.5021 4.07925C12.5021 4.45717 12.4007 4.72909 12.138 5.01483C11.7417 5.45727 11.0273 5.60014 10.5203 5.33744C10.2392 5.18996 9.9719 4.90422 9.84286 4.61386C9.53868 3.93177 9.9719 3.0561 10.7324 2.80722C10.9444 2.73809 11.5251 2.78879 11.7325 2.89479Z" fill="#45AAF2"/>
<path d="M26.9093 1.87451C26.5729 1.99895 26.3609 2.16947 25.688 2.88383L25.0474 3.55671L25.2087 3.7088C25.2962 3.79176 25.8862 4.34482 26.5176 4.93935C27.1536 5.52927 28.0661 6.40494 28.55 6.87964C29.0985 7.42348 29.4626 7.74609 29.5225 7.74609C29.5778 7.74609 29.8405 7.51565 30.2184 7.12852C30.8867 6.45103 31.025 6.22981 31.1171 5.6998C31.1816 5.32649 31.0803 4.87943 30.8498 4.53378C30.7622 4.40473 30.1862 3.81481 29.564 3.22027C28.2366 1.96208 28.0615 1.84225 27.4762 1.8146C27.2227 1.80538 27.0522 1.82381 26.9093 1.87451Z" fill="#45AAF2"/>
<path d="M19.7844 8.82986C17.4293 11.2034 15.4798 13.1806 15.4521 13.222C15.3922 13.3096 14.9175 14.5724 14.5212 15.6923C14.3691 16.121 14.0234 17.0842 13.7561 17.8308C13.4888 18.5774 13.2676 19.2273 13.2676 19.2734C13.2676 19.5637 13.5625 19.8633 13.8483 19.8633C13.9312 19.8633 15.1295 19.4162 16.5444 18.8586C17.9501 18.3009 19.2544 17.7893 19.4433 17.7156L19.789 17.5819L23.3608 13.9871C25.3241 12.0099 27.2921 10.0281 27.7253 9.5857L28.5226 8.77917L27.1723 7.44262C24.7665 5.05527 24.2088 4.51605 24.1351 4.51605C24.0982 4.51605 22.1395 6.45634 19.7844 8.82986ZM24.8218 7.15227C24.9831 7.30897 25.1121 7.46106 25.1121 7.4841C25.1121 7.52558 18.5861 14.1069 18.5124 14.1392C18.4571 14.1622 17.8303 13.5815 17.8303 13.5078C17.8303 13.4386 24.4162 6.87113 24.49 6.86653C24.513 6.86653 24.6651 6.99557 24.8218 7.15227ZM17.4708 15.614C17.9224 16.1025 18.2819 16.5219 18.2681 16.545C18.2405 16.591 18.0331 16.6878 16.9408 17.1718C16.5168 17.3607 16.1573 17.5128 16.1342 17.5082C16.0974 17.5082 15.5581 16.8906 15.5351 16.8261C15.5305 16.8077 15.7241 16.2777 15.9683 15.6509L16.4154 14.5171L16.5306 14.6185C16.5951 14.6784 17.0145 15.1255 17.4708 15.614Z" fill="#45AAF2"/>
<path d="M4.451 10.9359C3.80577 11.1433 3.57534 11.8761 3.99013 12.4246C4.11917 12.5997 4.48326 12.7656 4.72753 12.7656C5.25754 12.761 5.72763 12.2218 5.64007 11.7102C5.54789 11.1572 4.96258 10.7746 4.451 10.9359Z" fill="#45AAF2"/>
<path d="M7.25699 11.0277C7.1556 11.083 7.01273 11.2075 6.93438 11.3042C6.80533 11.4656 6.7915 11.5116 6.7915 11.8158C6.7915 12.1016 6.80994 12.1753 6.92055 12.3412C6.98968 12.4472 7.13255 12.5809 7.24316 12.6362L7.43673 12.7422H10.7366H14.0365L14.2577 12.6039C14.6403 12.3643 14.8062 11.8665 14.631 11.4609C14.5527 11.2812 14.3038 11.0369 14.1287 10.9724C14.0411 10.9355 12.9212 10.9217 10.7182 10.9217H7.43673L7.25699 11.0277Z" fill="#45AAF2"/>
<path d="M4.39973 14.8213C3.89737 15.001 3.63928 15.591 3.8605 16.0657C4.16007 16.7109 4.95278 16.8353 5.41827 16.3053C5.85611 15.803 5.62567 15.0241 4.97583 14.8029C4.77304 14.7383 4.62095 14.7429 4.39973 14.8213Z" fill="#45AAF2"/>
<path d="M24.7199 15.0402C24.3144 15.2015 23.9226 15.3674 23.8443 15.4042C23.6277 15.5195 21.2357 17.8377 21.2495 17.9206C21.2634 17.9898 21.503 18.0958 24.9965 19.5199C27.7479 20.6444 28.4485 20.9348 28.4945 20.9763C28.5406 21.0177 28.4669 21.05 27.4714 21.4279C27.075 21.58 26.2823 21.8842 25.7108 22.1008L24.6785 22.4972L24.0286 22.2575C23.6738 22.1285 22.3879 21.6261 21.1712 21.1468C17.7653 19.801 17.793 19.8102 17.5533 19.8333C17.3597 19.8471 15.8481 20.4463 15.6453 20.5845C15.5577 20.6444 15.5577 20.6444 15.6453 20.6767C15.8388 20.7458 21.5675 23.0226 22.5999 23.442C23.2083 23.6908 23.7198 23.9167 23.7383 23.9443C23.7982 24.0227 23.7844 34.798 23.7245 34.798C23.7014 34.798 23.2866 34.6136 22.8027 34.3832C22.3234 34.1574 21.2127 33.6458 20.337 33.2494C18.9912 32.6365 18.7331 32.5351 18.6824 32.5904C18.5718 32.7102 17.922 33.7933 17.922 33.8624C17.922 33.9361 18.111 34.0283 20.9638 35.3372C23.6507 36.5724 24.5494 36.9687 24.7199 36.9964C24.8951 37.024 25.1993 36.9088 27.0474 36.1115C27.794 35.7935 29.3518 35.1344 30.504 34.6505C35.122 32.7194 35.8732 32.3922 35.9976 32.277C36.2834 32.0051 36.2695 32.3968 36.2557 25.3638C36.2419 18.9853 36.2419 18.9484 36.1497 18.8194C36.0944 18.7502 35.9423 18.635 35.8041 18.5659C35.5137 18.4276 33.5872 17.6672 32.2323 17.1602C31.3704 16.8376 30.1998 16.3951 27.2317 15.2568C25.6417 14.6484 25.7062 14.653 24.7199 15.0402ZM26.6787 16.727C27.7848 17.1325 31.7069 18.6166 32.6655 18.9899C33.1356 19.1742 33.2646 19.2434 33.2047 19.2756C33.1632 19.2987 32.5457 19.5245 31.8267 19.7826L30.527 20.2435L30.2966 20.1651C30.1721 20.119 28.9969 19.6628 27.6926 19.142C26.3883 18.6258 24.8352 18.0128 24.2499 17.7778C23.6599 17.5427 23.176 17.3399 23.176 17.3261C23.176 17.2938 25.5265 16.3721 25.6187 16.3675C25.6555 16.3629 26.1348 16.5288 26.6787 16.727ZM34.698 25.7648V31.111L34.5136 31.2031C34.4122 31.2538 34.0988 31.3875 33.8131 31.4981C33.5273 31.6087 32.0064 32.2355 30.4348 32.8853C25.9413 34.7519 25.379 34.9823 25.3329 34.9547C25.3145 34.9409 25.296 32.4752 25.296 29.4702V24.0134L25.4481 23.9443C25.6924 23.8291 28.5821 22.7138 28.6973 22.6907L28.7987 22.6677V23.9489C28.7987 25.0735 28.8079 25.2394 28.8771 25.3131C28.9185 25.3592 28.9877 25.3961 29.0338 25.3961C29.149 25.3961 31.246 24.5665 31.3474 24.4835C31.4165 24.419 31.4257 24.29 31.4257 23.0226V21.6353L32.3152 21.2943C32.7991 21.1099 33.5135 20.838 33.8914 20.6905C34.2739 20.543 34.6104 20.4232 34.6426 20.4186C34.6841 20.4186 34.698 21.5155 34.698 25.7648Z" fill="#45AAF2"/>
<path d="M7.29827 14.8843C7.05861 14.9903 6.82817 15.2576 6.78669 15.465C6.70835 15.9028 6.88809 16.3268 7.24296 16.5112L7.43653 16.6172H9.81005C12.1697 16.6172 12.1836 16.6172 12.3725 16.5158C12.8933 16.2393 13.0454 15.6309 12.709 15.1654C12.4371 14.7921 12.497 14.7967 9.8331 14.7967C7.65775 14.7967 7.46879 14.8059 7.29827 14.8843Z" fill="#45AAF2"/>
<path d="M4.39927 18.6489C3.89691 18.8286 3.64343 19.4185 3.86004 19.8978C4.15039 20.5384 4.97997 20.6583 5.41781 20.1237C5.74042 19.7365 5.71738 19.2434 5.36711 18.8793C5.09519 18.5935 4.76797 18.5152 4.39927 18.6489Z" fill="#45AAF2"/>
<path d="M7.29926 18.6997C6.54342 19.096 6.60794 20.1422 7.40987 20.4141C7.51587 20.4464 8.1104 20.4648 9.23033 20.4648C10.8665 20.4648 10.9033 20.4648 11.1015 20.3588C11.5025 20.1561 11.6776 19.7689 11.59 19.2896C11.5486 19.0868 11.2812 18.778 11.0646 18.6859C10.8204 18.5845 7.49743 18.5937 7.29926 18.6997Z" fill="#45AAF2"/>
<path d="M14.5253 21.0053L13.8662 21.2634V21.7565C13.8662 22.1114 13.8846 22.2681 13.9261 22.305C14.0137 22.3741 15.2166 22.8073 15.2627 22.7843C15.2811 22.7751 15.2949 22.3096 15.2949 21.7519C15.2949 20.973 15.2811 20.7426 15.2396 20.7472C15.2074 20.7472 14.8848 20.8624 14.5253 21.0053Z" fill="#45AAF2"/>
<path d="M11.0363 22.7682C9.49696 22.9433 8.20189 23.5378 7.13266 24.5564C4.96653 26.6165 4.48261 29.9993 5.96664 32.6586C6.73169 34.0228 8.03137 35.0966 9.54305 35.599C10.2943 35.8525 10.7321 35.917 11.6769 35.9216C12.6448 35.9262 13.0273 35.8709 13.7831 35.6267C16.1244 34.857 17.802 32.9029 18.226 30.4418C18.3274 29.8334 18.3274 28.8379 18.226 28.2296C18.1292 27.6857 17.8527 26.8239 17.6315 26.3768C17.0047 25.1371 15.8617 24.0079 14.6311 23.4134C13.5527 22.8926 12.1608 22.6437 11.0363 22.7682ZM15.2856 26.257C15.3778 26.3307 15.5022 26.4828 15.5575 26.5934C15.705 26.87 15.6958 27.0866 15.5252 27.3262C15.4469 27.4276 14.3869 28.5245 13.1609 29.7551L10.9395 31.9949L10.7045 32.018C10.5339 32.0364 10.4187 32.018 10.2897 31.9581C10.0869 31.8659 7.85624 29.6675 7.69493 29.4048C7.45066 28.9992 7.7318 28.437 8.24798 28.2987C8.59825 28.2019 8.65816 28.2434 9.63062 29.202C10.1238 29.6952 10.5524 30.0961 10.58 30.0961C10.6077 30.0961 11.4603 29.2527 12.4696 28.225C13.4789 27.1972 14.3961 26.2939 14.5113 26.2201C14.774 26.0404 15.0321 26.0542 15.2856 26.257Z" fill="#45AAF2"/>
</svg>
